<svg width="19" height="18" viewBox="0 0 19 18" fill="none" xmlns="http://www.w3.org/2000/svg">
<path d="M14.8819 12.5692H7.9048C6.82051 12.5692 5.87765 11.8306 5.61837 10.7856L3.95265 4.11491C3.92405 3.99922 3.92214 3.87853 3.94707 3.76199C3.972 3.64545 4.02311 3.5361 4.09654 3.44223C4.16997 3.34836 4.26379 3.27243 4.37091 3.22017C4.47802 3.16792 4.59562 3.14072 4.71479 3.14062H18.0719C18.191 3.14117 18.3083 3.16867 18.4152 3.22106C18.5221 3.27345 18.6157 3.34938 18.689 3.44313C18.7624 3.53688 18.8135 3.64603 18.8387 3.76238C18.8638 3.87872 18.8622 3.99925 18.8341 4.11491L17.1684 10.7778C17.0427 11.2891 16.749 11.7436 16.3345 12.0683C15.92 12.3931 15.4085 12.5695 14.8819 12.5692ZM5.72051 4.71205L7.14265 10.4006C7.22908 10.7542 7.54337 10.9978 7.9048 10.9978H14.8819C15.2434 10.9978 15.5577 10.7542 15.6441 10.4006L17.0662 4.71205H5.72051Z" fill="#090909"/>
<path d="M4.71429 4.71429C4.35286 4.71429 4.03857 4.47071 3.95214 4.11714L3.31571 1.57143H0.785714C0.353571 1.57143 0 1.21786 0 0.785714C0 0.353571 0.353571 0 0.785714 0H3.92857C4.29 0 4.60429 0.243571 4.69071 0.597143L5.47643 3.74C5.50503 3.8557 5.50694 3.97638 5.48201 4.09292C5.45708 4.20947 5.40597 4.31881 5.33254 4.41268C5.25911 4.50655 5.16529 4.58248 5.05817 4.63474C4.95106 4.68699 4.83346 4.71419 4.71429 4.71429ZM7.07143 17.2857C6.20714 17.2857 5.5 16.5786 5.5 15.7143C5.5 14.85 6.20714 14.1429 7.07143 14.1429C7.93571 14.1429 8.64286 14.85 8.64286 15.7143C8.64286 16.5786 7.93571 17.2857 7.07143 17.2857ZM15.7143 17.2857C14.85 17.2857 14.1429 16.5786 14.1429 15.7143C14.1429 14.85 14.85 14.1429 15.7143 14.1429C16.5786 14.1429 17.2857 14.85 17.2857 15.7143C17.2857 16.5786 16.5786 17.2857 15.7143 17.2857Z" fill="#090909"/>
</svg>
