<svg width="18" height="18" viewBox="0 0 18 18" fill="none" xmlns="http://www.w3.org/2000/svg">
<path d="M13.332 4.33301H13.333L13.3389 4.32617C13.3619 4.30239 13.3895 4.28357 13.4199 4.27051C13.4504 4.25742 13.4834 4.25029 13.5166 4.25C13.5497 4.24976 13.5827 4.25603 13.6133 4.26855C13.644 4.28113 13.6719 4.29981 13.6953 4.32324C13.7188 4.3467 13.7374 4.37458 13.75 4.40527C13.7625 4.43593 13.7688 4.46884 13.7686 4.50195C13.7683 4.53514 13.7612 4.56813 13.748 4.59863C13.735 4.62905 13.7162 4.65667 13.6924 4.67969L13.6855 4.68555L9.3623 9.00879L9.71582 9.3623L13.6855 13.333C13.7272 13.3793 13.7505 13.4394 13.75 13.502C13.7494 13.5675 13.7231 13.6304 13.6768 13.6768C13.6304 13.7231 13.5675 13.7494 13.502 13.75C13.4365 13.7505 13.3733 13.7252 13.3262 13.6797L9.00879 9.3623L4.68555 13.6855L4.67969 13.6924C4.65667 13.7162 4.62905 13.735 4.59863 13.748C4.56813 13.7612 4.53514 13.7683 4.50195 13.7686C4.46884 13.7688 4.43593 13.7625 4.40527 13.75C4.37458 13.7374 4.3467 13.7188 4.32324 13.6953C4.2998 13.6719 4.28112 13.644 4.26855 13.6133C4.25603 13.5827 4.24976 13.5497 4.25 13.5166C4.25029 13.4834 4.25742 13.4504 4.27051 13.4199C4.28357 13.3895 4.30239 13.3619 4.32617 13.3389L4.33301 13.333L8.30273 9.3623L8.65625 9.00879L4.33301 4.68555C4.29126 4.63923 4.2681 4.57915 4.26855 4.5166C4.26912 4.45105 4.29544 4.38815 4.3418 4.3418C4.38815 4.29544 4.45105 4.26912 4.5166 4.26855C4.58007 4.26809 4.64093 4.29204 4.6875 4.33496L9.00879 8.65625L13.332 4.33301Z" fill="#1A1A1B" stroke="#585F79"/>
</svg>
