<svg width="24" height="24" viewBox="0 0 24 24" fill="none" xmlns="http://www.w3.org/2000/svg">
<path d="M5.9386 17.8331C5.9386 17.8331 6.00558 17.8331 6.0307 17.8331L8.48372 17.6161C8.82698 17.5839 9.14512 17.4392 9.38791 17.2061L18.6474 8.31631C19.0828 7.89835 19.3256 7.34374 19.3256 6.75697C19.3256 6.17021 19.0828 5.6156 18.6474 5.19764L18.053 4.62695C17.1823 3.79102 15.667 3.79102 14.7963 4.62695L13.6158 5.76028L5.54512 13.5087C5.30233 13.7418 5.15163 14.0473 5.12651 14.3768L4.90047 16.7319C4.87535 17.0293 4.98419 17.3187 5.20186 17.5357C5.40279 17.7286 5.66233 17.8331 5.9386 17.8331ZM16.4288 5.18156C16.6967 5.18156 16.9647 5.27801 17.1656 5.47896L17.76 6.04965C17.9609 6.24255 18.0698 6.49173 18.0698 6.75697C18.0698 7.02222 17.9609 7.27943 17.76 7.4643L17.0233 8.17163L14.9553 6.18629L15.6921 5.47896C15.893 5.28605 16.1609 5.18156 16.4288 5.18156ZM6.37395 14.4894C6.37395 14.4411 6.39907 14.4009 6.43256 14.3688L14.0595 7.0383L16.1274 9.02364L8.50046 16.3461C8.50046 16.3461 8.41674 16.4024 8.37488 16.4024L6.17302 16.5953L6.37395 14.4813V14.4894ZM21 20.3972C21 20.7267 20.7153 21 20.3721 21H3.62791C3.28465 21 3 20.7267 3 20.3972C3 20.0676 3.28465 19.7943 3.62791 19.7943H20.3721C20.7153 19.7943 21 20.0676 21 20.3972Z" fill="#9CA3AF"/>
</svg>
