<svg width="19" height="17" viewBox="0 0 19 17" fill="none" xmlns="http://www.w3.org/2000/svg">
<path d="M9.42867 16.5271C9.19296 16.5271 9.03582 16.4485 8.87867 16.2914L1.49296 8.90564C1.01608 8.43289 0.638397 7.86968 0.382047 7.24905C0.125697 6.62841 -0.00415615 5.96284 0.000101402 5.29135C0.000101402 2.77707 1.72867 0.577069 4.08582 0.105641C5.57867 -0.208645 7.1501 0.184212 8.32867 1.20564C8.72153 1.51993 9.11439 1.99136 9.42867 2.38421C9.74296 1.99136 10.0572 1.51993 10.5287 1.20564C11.7072 0.262783 13.2787 -0.130074 14.7715 0.105641C17.1287 0.577069 18.8572 2.77707 18.8572 5.29135C18.8572 6.62707 18.3072 7.96278 17.3644 8.90564L9.97867 16.2914C9.82153 16.4485 9.66439 16.5271 9.42867 16.5271ZM5.10724 1.5985C4.87153 1.5985 4.63582 1.5985 4.4001 1.67707C2.7501 1.99135 1.57153 3.48421 1.57153 5.29135C1.57153 6.23421 1.96439 7.0985 2.59296 7.80564L9.42867 14.6414L16.2644 7.80564C16.893 7.17707 17.2858 6.23421 17.2858 5.29135C17.2858 3.48421 16.1072 1.99135 14.4572 1.67707C13.3572 1.44135 12.3358 1.75564 11.4715 2.38421C10.6858 3.09136 10.2144 4.03421 10.2144 5.13421C10.2144 5.60564 9.9001 5.91993 9.42867 5.91993C8.95724 5.91993 8.64296 5.60564 8.64296 5.13421C8.64296 4.11278 8.17153 3.09136 7.38582 2.38421C6.67867 1.83421 5.97153 1.5985 5.10724 1.5985Z" fill="#090909"/>
</svg>
