<svg width="19" height="19" viewBox="0 0 19 19" fill="none" xmlns="http://www.w3.org/2000/svg">
<path d="M9.42857 18.8571C4.24286 18.8571 0 14.6143 0 9.42857C0 4.24286 4.24286 0 9.42857 0C14.6143 0 18.8571 4.24286 18.8571 9.42857C18.8571 14.6143 14.6143 18.8571 9.42857 18.8571ZM3.85 14.9286C5.26429 16.4214 7.22857 17.2857 9.42857 17.2857C11.6286 17.2857 13.5929 16.3429 15.0071 14.9286C13.5143 13.4357 11.4714 12.5714 9.42857 12.5714C7.30714 12.5714 5.26429 13.4357 3.85 14.9286ZM9.42857 11C11.8643 11 14.3 11.9429 16.0286 13.6714C16.8143 12.4143 17.2857 11 17.2857 9.42857C17.2857 5.10714 13.75 1.57143 9.42857 1.57143C5.10714 1.57143 1.57143 5.10714 1.57143 9.42857C1.57143 11 2.04286 12.4929 2.82857 13.6714C4.55714 11.9429 6.91429 11 9.42857 11ZM9.42857 9.42857C7.7 9.42857 6.28571 8.01429 6.28571 6.28571C6.28571 4.55714 7.7 3.14286 9.42857 3.14286C11.1571 3.14286 12.5714 4.55714 12.5714 6.28571C12.5714 8.01429 11.1571 9.42857 9.42857 9.42857ZM9.42857 4.71429C8.56429 4.71429 7.85714 5.42143 7.85714 6.28571C7.85714 7.15 8.56429 7.85714 9.42857 7.85714C10.2929 7.85714 11 7.15 11 6.28571C11 5.42143 10.2929 4.71429 9.42857 4.71429Z" fill="black"/>
</svg>
