<svg width="20" height="20" viewBox="0 0 20 20" fill="none" xmlns="http://www.w3.org/2000/svg">
<path fill-rule="evenodd" clip-rule="evenodd" d="M12.5305 3.58203C12.8756 3.58203 13.1555 3.86186 13.1555 4.20703V6.77707C13.1555 7.12227 12.8756 7.40207 12.5305 7.40207C12.1853 7.40207 11.9054 7.12227 11.9054 6.77707V6.08449H1.75977C1.41459 6.08449 1.13477 5.80465 1.13477 5.45949C1.13477 5.1143 1.41459 4.83449 1.75977 4.83449H11.9054V4.20703C11.9054 3.86186 12.1853 3.58203 12.5305 3.58203ZM18.9577 5.4534C18.9611 5.79855 18.6839 6.08109 18.3388 6.08445L14.9769 6.11703C14.6318 6.12039 14.3492 5.84328 14.3458 5.49813C14.3425 5.15297 14.6196 4.87047 14.9647 4.86711L18.3267 4.83449C18.6719 4.83117 18.9544 5.10824 18.9577 5.4534ZM7.53459 7.70848C7.87979 7.70848 8.15959 7.98828 8.15959 8.33348V9.58516V9.58656V10.9035C8.15959 11.2487 7.87979 11.5285 7.53459 11.5285C7.18943 11.5285 6.90959 11.2487 6.90959 10.9035V10.2109H1.75977C1.41459 10.2109 1.13477 9.93109 1.13477 9.5859C1.13477 9.24074 1.41459 8.9609 1.75977 8.9609H6.90959V8.33348C6.90959 7.98828 7.18943 7.70848 7.53459 7.70848ZM9.37443 9.5859C9.37443 9.24074 9.65428 8.9609 9.99943 8.9609H18.3328C18.678 8.9609 18.9578 9.24074 18.9578 9.5859C18.9578 9.93109 18.678 10.2109 18.3328 10.2109H9.99943C9.65428 10.2109 9.37443 9.93109 9.37443 9.5859ZM10.846 12.6783C11.1912 12.6783 11.471 12.9582 11.471 13.3033V15.8733C11.471 16.2185 11.1912 16.4983 10.846 16.4983C10.5008 16.4983 10.221 16.2185 10.221 15.8733V15.1807H2.06023C1.71505 15.1807 1.43523 14.9009 1.43523 14.5557C1.43523 14.2106 1.71505 13.9307 2.06023 13.9307H10.221V13.3033C10.221 12.9582 10.5008 12.6783 10.846 12.6783ZM19.2583 14.5519C19.2603 14.8971 18.9823 15.1786 18.6371 15.1807L13.3248 15.2135C12.9796 15.2157 12.6981 14.9375 12.6959 14.5923C12.6938 14.2471 12.9719 13.9657 13.3171 13.9635L18.6294 13.9307C18.9746 13.9287 19.2561 14.2068 19.2583 14.5519Z" fill="black"/>
</svg>
