<svg width="89" height="23" viewBox="0 0 89 23" fill="none" xmlns="http://www.w3.org/2000/svg">
<path d="M85.1596 14.843L85.1428 14.8982C84.5078 17.4332 83.0785 19.7508 80.2614 19.2478C77.098 18.6827 77.6975 14.7765 78.7302 12.592C79.4032 11.1638 80.6121 9.32809 82.8783 9.36577C85.4005 9.40608 85.8894 12.4816 85.1605 14.8439H85.1596V14.843ZM26.7817 18.985L26.7587 19.02C26.1998 19.6947 24.7599 19.8112 23.8149 19.707C23.7857 19.7043 23.7591 19.7008 23.7326 19.6982C23.6706 19.6894 23.6095 19.6816 23.5528 19.6728C22.6176 19.5159 21.5239 19.1173 20.9907 18.3199C20.9022 18.1946 20.8322 18.0579 20.7791 17.9133C20.7516 17.6347 20.849 17.4253 20.9783 17.2159C21.0784 17.0441 22.6539 13.9274 22.9125 13.9274C23.0294 13.9274 23.1365 13.987 23.2375 14.0466C24.0992 14.5556 24.9193 15.1331 25.6862 15.7736C26.0723 16.096 26.4505 16.4413 26.7206 16.8636C27.1173 17.4857 27.2519 18.3663 26.7808 18.9876V18.985H26.7817ZM87.7704 8.33796C86.6882 6.77302 85.2269 6.00195 82.9952 5.99932C80.7635 5.99669 79.211 6.86065 77.9907 7.93051C76.7473 9.02141 76.1353 10.2411 75.3498 11.9278C74.8946 12.9083 74.4474 14.433 73.8089 15.523C72.8329 17.1948 71.6533 18.4496 70.0654 19.1392C68.9629 19.6833 67.8603 19.2417 67.8063 17.859C67.7469 16.8759 68.2765 15.9567 68.6742 15.0919C69.4535 13.4998 70.4551 12.0523 71.3655 10.5688C72.151 9.31407 71.3823 7.30752 69.8281 7.1831C68.4581 6.97631 66.9729 7.12176 65.6498 6.58376C64.9405 6.21136 63.9114 5.29483 63.094 5.1634C61.9586 4.69812 60.756 5.53229 60.3566 6.61267C60.1662 7.09898 60.1007 7.57827 60.2238 8.10839C60.2857 8.45187 60.2893 8.77695 60.2556 9.16161C59.8731 13.6505 57.4155 19.3241 54.6569 19.289C54.2654 19.2829 53.8837 19.3179 53.572 18.8386C53.1017 18.114 53.1894 17.25 53.3285 16.4527C53.866 14.5942 54.3194 13.6575 54.9314 11.7719C55.1687 11.0411 56.0729 9.18264 55.8161 8.19952C55.7311 7.87093 55.3671 7.79733 55.0076 7.6878C54.2433 7.51606 53.1487 7.43457 52.5553 7.88232C51.6768 8.74365 51.4439 10.3673 51.0206 11.6957C50.0322 14.794 49.7143 17.6768 47.1602 19.1313C46.2197 19.6675 44.7231 19.3004 45.0401 18.0483C45.8221 14.9789 47.8422 10.511 46.1223 7.72022C44.4406 5.16252 40.5997 6.14302 38.7913 7.97958C38.4858 8.27049 38.097 8.65778 37.803 8.90751C37.7587 8.94255 37.7437 8.95394 37.741 8.95394C37.741 8.95132 38.4264 6.51103 38.7408 5.38771C38.9587 4.63153 39.1261 3.90689 39.359 3.17087C39.5919 2.49267 39.7761 1.78643 39.8824 1.09947C39.9674 0.605282 39.6176 0.240773 39.1305 0.121607C38.3361 -0.119355 37.2105 -0.00369324 36.564 0.481735C36.1407 0.772641 36.0902 1.28173 35.9353 1.73474C35.2595 3.94019 34.6919 6.12812 34.0976 8.30641C33.4892 10.3699 32.7869 12.5254 32.0421 14.5495C31.9199 14.8807 31.7924 15.2093 31.6569 15.5344C31.4948 15.9243 31.3106 16.2652 30.8368 16.3221C30.3755 16.3782 30.1169 16.1188 29.8937 15.7692C29.6705 15.4196 29.4447 15.0446 29.2144 14.6853C28.7566 13.9712 28.2544 13.2702 27.592 12.7261C26.9234 12.1767 26.1476 11.7798 25.4072 11.339C25.1035 11.1576 24.6465 10.9675 24.4959 10.6424C24.3392 10.3016 24.3675 9.82491 24.5916 9.52349C25.169 8.7419 26.3964 9.25799 27.1829 8.93642C27.507 8.80411 27.7691 8.54387 27.9303 8.23719C28.0915 7.93051 28.1552 7.57827 28.1446 7.23216C28.1375 7.00084 28.0941 6.76426 27.9702 6.56799C27.793 6.28672 27.468 6.12199 27.1395 6.05978C26.7604 5.9888 26.3477 6.02823 25.9678 6.03086C25.5631 6.03349 25.1593 6.08957 24.7581 6.13163C24.07 6.20348 23.3703 6.35244 22.7876 6.72133C22.1588 7.12001 21.709 7.74651 21.3839 8.41156C21.0589 9.07662 20.8464 9.78811 20.5851 10.4812C20.0201 11.9813 19.1327 13.2956 18.473 14.744C17.8761 16.0557 17.0569 17.3079 16.0491 18.3576C15.57 18.7641 14.796 19.3609 14.1326 19.1979C13.851 19.1015 13.6969 19.0261 13.5889 18.7913C13.4888 18.5731 13.5269 18.3138 13.5446 18.2551C14.4125 15.2005 15.2326 12.0935 16.1385 9.06873C16.7035 7.62909 17.0852 6.38661 14.9385 6.41027C12.9734 6.29373 12.7679 7.1498 12.3039 8.85931C11.9541 10.1596 11.637 11.5099 11.3067 12.8041C10.4574 16.1521 8.68973 19.7192 4.92858 19.3293C3.09273 18.843 4.31398 16.5534 4.53183 15.367C4.95249 13.9405 5.28725 12.5947 5.71323 11.1831C5.96297 10.4619 6.13389 9.74605 6.37831 9.01616C6.58997 8.20477 7.13993 7.31103 6.56872 6.70293C6.11972 6.41815 5.60961 6.48212 5.01272 6.4348C4.10409 6.41202 3.2486 6.60917 2.91915 7.46962C1.94145 10.9009 0.846847 14.2901 0.0772599 17.76C-0.146797 19.0778 0.106485 20.5271 0.968175 21.5392C2.56226 23.4327 5.43426 23.133 7.59601 22.3943C8.47276 22.0631 9.28131 21.2772 10.2537 21.3034C10.5504 21.2973 10.7656 21.4401 10.8949 21.618C12.2498 23.5851 15.2733 23.0384 16.9258 21.7433C17.7751 21.0099 18.5048 21.0336 19.1106 21.5488C21.2281 23.3529 26.2468 23.2828 29.3969 21.8309C29.721 21.682 30.1611 21.5865 30.4029 21.915C30.867 22.7492 32.2086 22.6362 33.0376 22.4934C34.1747 22.1998 34.3314 21.1484 34.6193 20.0548C35.0452 18.6704 35.4198 17.2597 35.8219 15.863C36.1655 14.5854 36.4684 13.2483 37.2743 12.1627C38.0279 11.205 39.483 9.72765 41.2976 9.66106C41.7714 9.62951 42.2762 9.73641 42.5826 10.1202C43.1263 10.8037 42.9129 11.8858 42.7774 12.3721C42.4834 13.4779 42.169 14.6152 41.8564 15.7263C41.3737 17.5742 40.3916 19.7297 41.627 21.5041C43.183 23.7525 46.6643 23.048 48.6489 21.5882C49.1573 21.2386 49.5638 21.2947 50.3068 21.9317C51.141 22.6476 52.8184 22.9332 54.1441 22.8535C59.9164 22.5126 61.2927 17.1826 62.7282 12.9276C62.9611 12.2354 63.1347 11.0069 63.357 10.6144C63.4456 10.4575 63.6856 10.3322 63.9946 10.2858C64.2532 10.2455 65.0857 10.242 65.3354 10.242C65.7765 10.242 66.3734 10.2823 66.6461 10.6293C66.7967 10.7782 66.7666 11.1156 66.655 11.3189C66.2671 12.04 65.8057 12.8339 65.3841 13.6461C64.4932 15.3889 63.4234 17.0993 63.7582 19.0656C64.5198 23.4265 70.3568 23.8419 73.2589 21.2272C73.8142 20.6305 74.7999 19.8305 75.5225 20.6953C77.8047 23.4151 81.6889 23.5229 84.1297 22.0885C86.124 20.9197 87.4436 19.1786 88.0555 17.3604C88.9872 14.5828 89.6496 11.0507 87.7695 8.33533V8.33796H87.7686H87.7704Z" fill="#090909"/>
<path d="M56.2633 5.93463C55.4104 6.59267 54.0059 6.50855 53.2814 5.75675L53.246 5.71645C52.4986 4.98305 52.5668 3.5732 53.3638 2.8547C54.2282 2.00564 55.7567 2.05471 56.5573 2.8398C57.442 3.62578 57.2578 5.25993 56.2633 5.932V5.93463Z" fill="#090909"/>
</svg>
