<svg width="16" height="16" viewBox="0 0 16 16" fill="none" xmlns="http://www.w3.org/2000/svg">
<path d="M6.44805 1.30519C5.43089 1.30519 4.43657 1.60681 3.59083 2.17192C2.74509 2.73702 2.08592 3.54023 1.69667 4.47996C1.30742 5.4197 1.20557 6.45375 1.40401 7.45137C1.60245 8.44899 2.09226 9.36536 2.8115 10.0846C3.53074 10.8038 4.44711 11.2937 5.44473 11.4921C6.44234 11.6905 7.4764 11.5887 8.41614 11.1994C9.35587 10.8102 10.1591 10.151 10.7242 9.30527C11.2893 8.45953 11.5909 7.46521 11.5909 6.44805C11.5892 5.0846 11.0468 3.77748 10.0827 2.81338C9.11862 1.84927 7.8115 1.30689 6.44805 1.30519ZM15.2597 15.2597C15.1391 15.3802 14.9757 15.4479 14.8052 15.4479C14.6347 15.4479 14.4712 15.3802 14.3507 15.2597L10.5135 11.4225C9.2347 12.468 7.60297 12.9821 5.9558 12.8583C4.30863 12.7346 2.77204 11.9824 1.66387 10.7575C0.555695 9.53257 -0.0392778 7.92857 0.00201401 6.27728C0.0433058 4.62598 0.717703 3.05372 1.88571 1.88571C3.05372 0.717703 4.62598 0.0433058 6.27728 0.00201401C7.92857 -0.0392778 9.53257 0.555695 10.7575 1.66387C11.9824 2.77204 12.7346 4.30863 12.8583 5.9558C12.9821 7.60297 12.468 9.2347 11.4225 10.5135L15.2597 14.3507C15.3802 14.4712 15.4479 14.6347 15.4479 14.8052C15.4479 14.9757 15.3802 15.1391 15.2597 15.2597Z" fill="#AEAEB2"/>
</svg>
