<svg width="19" height="19" viewBox="0 0 19 19" fill="none" xmlns="http://www.w3.org/2000/svg">
<path d="M7.88095 1.59523C6.63775 1.59523 5.42247 1.96388 4.38879 2.65457C3.35511 3.34525 2.54946 4.32695 2.07371 5.47551C1.59795 6.62407 1.47348 7.88792 1.71601 9.10723C1.95855 10.3265 2.5572 11.4465 3.43628 12.3256C4.31535 13.2047 5.43536 13.8034 6.65467 14.0459C7.87398 14.2884 9.13782 14.1639 10.2864 13.6882C11.435 13.2124 12.4166 12.4068 13.1073 11.3731C13.798 10.3394 14.1667 9.12415 14.1667 7.88095C14.1646 6.21451 13.5017 4.61692 12.3233 3.43857C11.145 2.26022 9.54739 1.59731 7.88095 1.59523ZM18.6507 18.6507C18.5034 18.798 18.3036 18.8808 18.0952 18.8808C17.8869 18.8808 17.6871 18.798 17.5397 18.6507L12.8498 13.9608C11.2869 15.2387 9.29251 15.867 7.27931 15.7157C5.2661 15.5645 3.38805 14.6452 2.03362 13.1481C0.679183 11.6509 -0.0480061 9.69048 0.00246157 7.67223C0.0529293 5.65397 0.877192 3.73233 2.30476 2.30476C3.73233 0.877192 5.65397 0.0529293 7.67223 0.00246157C9.69048 -0.0480061 11.6509 0.679183 13.1481 2.03362C14.6452 3.38805 15.5645 5.2661 15.7157 7.27931C15.867 9.29251 15.2387 11.2869 13.9608 12.8498L18.6507 17.5397C18.798 17.6871 18.8808 17.8869 18.8808 18.0952C18.8808 18.3036 18.798 18.5034 18.6507 18.6507Z" fill="#0A0B12"/>
</svg>
