<svg width="120" height="120" viewBox="0 0 120 120" fill="none" xmlns="http://www.w3.org/2000/svg">
<path d="M19.7206 91.308C19.2523 90.4945 18.1923 90.2233 17.3788 90.6917L13.0896 93.1814V88.2266C13.0896 87.2899 12.3254 86.5257 11.3887 86.5257C10.4519 86.5257 9.68776 87.2899 9.68776 88.2266V93.1814L5.39852 90.6917C4.58505 90.2233 3.52506 90.4945 3.0567 91.308C2.58833 92.1214 2.85949 93.1814 3.67297 93.6498L7.98685 96.1642L3.67297 98.6786C2.85949 99.1469 2.58833 100.207 3.0567 101.02C3.52506 101.834 4.58505 102.105 5.39852 101.637L9.68776 99.1469V104.102C9.68776 105.038 10.4519 105.803 11.3887 105.803C12.3254 105.803 13.0896 105.038 13.0896 104.102V99.1469L17.3788 101.637C18.1923 102.105 19.2523 101.834 19.7206 101.02C20.189 100.207 19.9178 99.1469 19.1044 98.6786L14.7905 96.1642L19.1044 93.6498C19.9178 93.1568 20.2136 92.1214 19.7206 91.308ZM35.4725 100.996C35.9408 101.809 37.0008 102.08 37.8143 101.612L42.1035 99.1223V104.077C42.1035 105.014 42.8677 105.778 43.8044 105.778C44.7412 105.778 45.5053 105.014 45.5053 104.077V99.1223L49.7946 101.612C50.6081 102.08 51.668 101.809 52.1364 100.996C52.6048 100.182 52.3336 99.1223 51.5201 98.6539L47.2062 96.1395L51.5201 93.6251C52.3336 93.1568 52.6048 92.0968 52.1364 91.2833C51.668 90.4698 50.6081 90.1987 49.7946 90.667L45.5053 93.1568V88.202C45.5053 87.2652 44.7412 86.5011 43.8044 86.5011C42.8677 86.5011 42.1035 87.2652 42.1035 88.202V93.1568L37.8143 90.6917C37.0008 90.2233 35.9408 90.4945 35.4725 91.308C35.0041 92.1214 35.2753 93.1814 36.0887 93.6498L40.4026 96.1642L36.0887 98.6539C35.2753 99.1223 35.0041 100.182 35.4725 100.996ZM32.4158 113.913V116.92C32.4158 117.635 33.0074 118.227 33.7223 118.227H53.9113C54.6261 118.227 55.2178 117.635 55.2178 116.92V113.913C55.2178 113.198 54.6261 112.606 53.9113 112.606H33.7223C32.9827 112.606 32.4158 113.198 32.4158 113.913ZM81.6187 29.8536H81.4708V23.1486C81.4708 11.4887 71.931 1.57913 60.2958 1.77633C48.9811 1.97354 39.811 11.2422 39.811 22.6062V23.2472C39.811 24.2085 40.5998 24.9974 41.5612 24.9974H47.1569C48.1183 24.9974 48.9071 24.2085 48.9071 23.2472V23.05C48.9071 16.7887 53.6154 11.2915 59.8767 10.8971C66.6804 10.4781 72.35 15.8766 72.35 22.5816V29.8289H55.0945V29.8536H39.1454C36.1873 29.9522 33.7962 32.3433 33.7962 35.326V65.6465C33.7962 68.6785 36.2613 71.1436 39.2933 71.1436H81.5941C84.6261 71.1436 87.0912 68.6785 87.0912 65.6465V35.3507C87.1159 32.3187 84.6508 29.8536 81.6187 29.8536ZM63.7223 51.8667C63.3032 52.1625 63.1799 52.483 63.1799 52.976C63.2046 55.1946 63.2046 57.4131 63.1799 59.6564C63.2292 60.5931 62.7609 61.4805 61.9228 61.8996C59.9753 62.8856 58.0279 61.5052 58.0279 59.6564V52.9514C58.0279 52.5076 57.9293 52.1872 57.5349 51.8914C55.5136 50.4123 54.848 47.8733 55.8587 45.6301C56.8447 43.4608 59.2358 42.179 61.479 42.6473C63.9934 43.1403 65.7436 45.1864 65.7683 47.6761C65.8422 49.4263 65.1274 50.856 63.7223 51.8667ZM64.8069 113.913V116.92C64.8069 117.635 65.3985 118.227 66.1134 118.227H86.3024C87.0173 118.227 87.6089 117.635 87.6089 116.92V113.913C87.6089 113.198 87.0173 112.606 86.3024 112.606H66.1134C65.3985 112.606 64.8069 113.198 64.8069 113.913ZM67.8636 100.996C68.332 101.809 69.3919 102.08 70.2054 101.612L74.4947 99.1223V104.077C74.4947 105.014 75.2588 105.778 76.1956 105.778C77.1323 105.778 77.8965 105.014 77.8965 104.077V99.1223L82.1857 101.612C82.9992 102.08 84.0592 101.809 84.5275 100.996C84.9959 100.182 84.7247 99.1223 83.9113 98.6539L79.5974 96.1395L83.9113 93.6251C84.7247 93.1568 84.9959 92.0968 84.5275 91.2833C84.0592 90.4698 82.9992 90.1987 82.1857 90.667L77.8965 93.1568V88.202C77.8965 87.2652 77.1323 86.5011 76.1956 86.5011C75.2588 86.5011 74.4947 87.2652 74.4947 88.202V93.1568L70.2054 90.667C69.3919 90.1987 68.332 90.4698 67.8636 91.2833C67.3952 92.0968 67.6664 93.1568 68.4799 93.6251L72.7938 96.1395L68.4799 98.6539C67.6664 99.1223 67.3952 100.182 67.8636 100.996ZM118.694 112.606H98.5045C97.7896 112.606 97.198 113.198 97.198 113.913V116.92C97.198 117.635 97.7896 118.227 98.5045 118.227H118.694C119.408 118.227 120 117.635 120 116.92V113.913C120 113.198 119.408 112.606 118.694 112.606ZM1.30649 118.227H21.4955C22.2104 118.227 22.802 117.635 22.802 116.92V113.913C22.802 113.198 22.2104 112.606 21.4955 112.606H1.30649C0.591619 112.606 0 113.198 0 113.913V116.92C0 117.635 0.591619 118.227 1.30649 118.227ZM100.279 100.996C100.748 101.809 101.808 102.08 102.621 101.612L106.91 99.1223V104.077C106.91 105.014 107.675 105.778 108.611 105.778C109.548 105.778 110.312 105.014 110.312 104.077V99.1223L114.601 101.612C115.415 102.08 116.475 101.809 116.943 100.996C117.412 100.182 117.141 99.1223 116.327 98.6539L112.013 96.1395L116.327 93.6251C117.141 93.1568 117.412 92.0968 116.943 91.2833C116.475 90.4698 115.415 90.1987 114.601 90.667L110.312 93.1568V88.202C110.312 87.2652 109.548 86.5011 108.611 86.5011C107.675 86.5011 106.91 87.2652 106.91 88.202V93.1568L102.621 90.667C101.808 90.1987 100.748 90.4698 100.279 91.2833C99.811 92.0968 100.082 93.1568 100.896 93.6251L105.21 96.1395L100.896 98.6539C100.082 99.1223 99.7864 100.182 100.279 100.996Z" fill="#090909"/>
</svg>
